<?xml version="1.0" encoding="UTF-8"?>
<svg width="111px" height="67px" viewBox="0 0 111 67" version="1.1" xmlns="http://www.w3.org/2000/svg" xmlns:xlink="http://www.w3.org/1999/xlink">
    <!-- Generator: Sketch 41.1 (35376) - http://www.bohemiancoding.com/sketch -->
    <title>DNS</title>
    <desc>Created with Sketch.</desc>
    <defs>
        <linearGradient x1="60.0465745%" y1="0%" x2="50%" y2="100%" id="linearGradient-1">
            <stop stop-color="#9523AE" offset="0%"></stop>
            <stop stop-color="#0080FF" offset="25.1328125%"></stop>
            <stop stop-color="#C96DD8" offset="100%"></stop>
        </linearGradient>
    </defs>
    <g id="Competentions" stroke="none" stroke-width="1" fill="none" fill-rule="evenodd">
        <g id="1.1" transform="translate(-44.000000, -195.000000)" fill="url(#linearGradient-1)">
            <path d="M44,260.507812 L44,195.742188 L58.21875,195.742188 C61.3437656,195.742188 64.0064994,196.210933 66.2070312,197.148438 C68.4075631,198.085942 70.1197855,199.427075 71.34375,201.171875 C72.5677145,202.916675 73.4466119,204.863271 73.9804688,207.011719 C74.5143256,209.160167 74.78125,211.601549 74.78125,214.335938 L74.78125,241.210938 C74.78125,244.153661 74.5143256,246.74478 73.9804688,248.984375 C73.4466119,251.22397 72.5807352,253.235668 71.3828125,255.019531 C70.1848898,256.803394 68.5117295,258.164058 66.3632812,259.101562 C64.214833,260.039067 61.6172027,260.507812 58.5703125,260.507812 L44,260.507812 Z M48.375,257.070312 L58.375,257.070312 C60.4062602,257.070312 62.1575447,256.777347 63.6289062,256.191406 C65.1002678,255.605466 66.2656207,254.843755 67.125,253.90625 C67.9843793,252.968745 68.6614559,251.75782 69.15625,250.273438 C69.6510441,248.789055 69.9765617,247.317716 70.1328125,245.859375 C70.2890633,244.401034 70.3671875,242.695322 70.3671875,240.742188 L70.3671875,214.6875 C70.3671875,212.682282 70.2630219,210.924487 70.0546875,209.414062 C69.8463531,207.903638 69.4752631,206.484382 68.9414062,205.15625 C68.4075494,203.828118 67.6849004,202.7474 66.7734375,201.914062 C65.8619746,201.080725 64.6901113,200.423179 63.2578125,199.941406 C61.8255137,199.459633 60.1328223,199.21875 58.1796875,199.21875 L48.375,199.21875 L48.375,257.070312 Z M85.3671875,260.507812 L85.3671875,195.742188 L88.84375,195.742188 L110.796875,250.429688 L110.796875,195.742188 L114.664062,195.742188 L114.664062,260.507812 L111.226562,260.507812 L89.234375,205.703125 L89.234375,260.507812 L85.3671875,260.507812 Z M139.585938,261.328125 C130.080682,261.328125 124.85938,255.729223 123.921875,244.53125 L127.75,243.320312 C127.984376,245.16928 128.264321,246.770827 128.589844,248.125 C128.915366,249.479173 129.377601,250.787754 129.976562,252.050781 C130.575524,253.313808 131.291663,254.342444 132.125,255.136719 C132.958337,255.930994 134.006504,256.562498 135.269531,257.03125 C136.532558,257.500002 137.984367,257.734375 139.625,257.734375 C146.526076,257.734375 149.976562,254.257847 149.976562,247.304688 C149.976562,244.648424 149.305996,242.226573 147.964844,240.039062 C146.623691,237.851552 144.481786,235.299494 141.539062,232.382812 L129.703125,220.585938 C125.953106,216.835919 124.078125,212.734397 124.078125,208.28125 C124.078125,204.062479 125.360664,200.800793 127.925781,198.496094 C130.490898,196.191395 133.934874,195.026042 138.257812,195 L138.375,195 C142.984398,195 146.53905,196.243477 149.039062,198.730469 C151.539075,201.21746 152.971352,205.390596 153.335938,211.25 L149.664062,212.109375 C149.247394,207.421852 148.225269,203.984386 146.597656,201.796875 C144.970044,199.609364 142.359393,198.515625 138.765625,198.515625 L138.375,198.515625 C135.223943,198.567709 132.710947,199.368482 130.835938,200.917969 C128.960928,202.467456 128.023438,204.817693 128.023438,207.96875 C128.023438,209.661467 128.388017,211.282544 129.117188,212.832031 C129.846358,214.381518 131.070304,216.028637 132.789062,217.773438 L144.46875,229.296875 C147.463557,232.26564 149.813794,235.175767 151.519531,238.027344 C153.225269,240.878921 154.078125,243.893213 154.078125,247.070312 C154.078125,251.757836 152.769544,255.305978 150.152344,257.714844 C147.535143,260.12371 144.013043,261.328125 139.585938,261.328125 L139.585938,261.328125 Z" id="DNS"></path>
        </g>
    </g>
</svg>